<?xml version="1.0" encoding="UTF-8"?>
<svg width="48" height="48" viewBox="0 0 48 48" fill="none" xmlns="http://www.w3.org/2000/svg">
  <circle cx="24" cy="24" r="24" fill="#084F55"/>
  <path d="M24 14C17.3726 14 12 19.3726 12 26C12 32.6274 17.3726 38 24 38C30.6274 38 36 32.6274 36 26C36 19.3726 30.6274 14 24 14ZM24 16C29.5228 16 34 20.4772 34 26C34 31.5228 29.5228 36 24 36C18.4772 36 14 31.5228 14 26C14 20.4772 18.4772 16 24 16Z" fill="white"/>
  <path d="M24 20C22.3431 20 21 21.3431 21 23C21 24.6569 22.3431 26 24 26C25.6569 26 27 24.6569 27 23C27 21.3431 25.6569 20 24 20Z" fill="white"/>
  <path d="M19 28C18.4477 28 18 28.4477 18 29C18 31.7614 20.6863 34 24 34C27.3137 34 30 31.7614 30 29C30 28.4477 29.5523 28 29 28H19Z" fill="white"/>
</svg>
